Results
version=1
nRows=24
nColumns=24
inDegrees=yes
endheader
time	pelvis_tilt	pelvis_list	pelvis_rotation	pelvis_tx	pelvis_ty	pelvis_tz	hip_flexion_r	hip_adduction_r	hip_rotation_r	knee_angle_r	ankle_angle_r	subtalar_angle_r	mtp_angle_r	hip_flexion_l	hip_adduction_l	hip_rotation_l	knee_angle_l	ankle_angle_l	subtalar_angle_l	mtp_angle_l	lumbar_extension	lumbar_bending	lumbar_rotation
      0.87566667	     -4.31377177	     -2.53270442	      8.01217900	     -0.42212800	      1.02374622	      0.28109010	     16.82140338	      8.15652312	     -5.62902290	    -19.17173866	      4.56793149	     -8.23297658	      5.79142548	     16.08404226	     -4.65901483	      1.59211127	    -65.20472171	     -7.92390644	      5.71947962	      7.71819959	      3.36048099	     -0.81328254	     -4.63011491
      0.87983333	     -4.31539904	     -2.49334953	      7.97568968	     -0.41736250	      1.02446187	      0.28115168	     16.36267356	      8.15816681	     -5.67581244	    -18.85223272	      4.65206753	     -8.11222993	      5.80666309	     16.75819006	     -4.56796137	      1.62291527	    -65.25699726	     -6.97200844	      5.21788392	      7.64475925	      3.28088559	     -0.83337815	     -4.56227738
      0.88400000	     -4.31710053	     -2.47344014	      7.96321279	     -0.41262534	      1.02513654	      0.28115074	     15.91949571	      8.15913065	     -5.82752578	    -18.55442011	      4.79125565	     -7.76103129	      6.39344133	     17.44013090	     -4.48335845	      1.68533877	    -65.28313819	     -5.96684029	      4.77140634	      3.22448236	      3.20707964	     -0.80988961	     -4.22142184
      0.88816667	     -4.29189710	     -2.44433620	      7.87198605	     -0.40785612	      1.02583673	      0.28131101	     15.42871376	      8.19767694	     -5.78174384	    -18.22981597	      4.91437719	     -7.59940613	      6.40025937	     18.05393860	     -4.42608471	      1.65351770	    -65.22838582	     -5.05790300	      4.32572743	      3.21884902	      3.08296542	     -0.78182521	     -4.19526571
      0.89233333	     -4.26718387	     -2.40908474	      7.79368472	     -0.40305747	      1.02652033	      0.28145424	     14.93607366	      8.22161366	     -5.78971109	    -17.90026520	      5.00511054	     -7.44249760	      6.40545807	     18.65259631	     -4.35413513	      1.63587742	    -65.11107033	     -4.23942388	      3.80923734	      3.21139025	      2.99348267	     -0.80551972	     -4.11745660
      0.89650000	     -4.23377228	     -2.37060669	      7.69385228	     -0.39829078	      1.02719067	      0.28159950	     14.44120685	      8.24466050	     -5.77605666	    -17.58518871	      5.11241585	     -7.24819420	      6.41203480	     19.22591485	     -4.27671946	      1.60698919	    -64.93762058	     -3.47471082	      3.25792088	      3.19258294	      2.86659520	     -0.80037844	     -3.99360110
      0.90066667	     -4.19669986	     -2.32527614	      7.57640068	     -0.39354506	      1.02782952	      0.28178684	     13.94247918	      8.26597379	     -5.73969802	    -17.26813381	      5.22177014	     -7.04918142	      6.41875798	     19.78274037	     -4.19939986	      1.55529326	    -64.71789031	     -2.76962804	      2.68923338	      3.16794096	      2.74738711	     -0.80457562	     -3.85000902
      0.90483333	     -4.09529395	     -2.24596700	      7.42368493	     -0.38879220	      1.02858293	      0.28197281	     13.38144799	      8.25560176	     -5.70149185	    -16.99149565	      5.44793289	     -6.65082938	      6.43662833	     20.22585973	     -4.09384882	      1.47508888	    -64.39765285	     -2.22336174	      1.98922106	      3.02259459	      2.51083861	     -0.82384621	     -3.40393476
      0.90900000	     -4.08089692	     -2.19839021	      7.27148838	     -0.38403960	      1.02913238	      0.28220704	     12.91319441	      8.27742636	     -5.62156734	    -16.68985109	      5.52008804	     -6.51823458	      6.44178198	     20.76694412	     -4.01670247	      1.40220413	    -64.05982442	     -1.56623240	      1.44722655	      2.98172159	      2.42650551	     -0.83607671	     -3.30216754
      0.91316667	     -4.00536133	     -2.11649284	      7.08291322	     -0.37931382	      1.02978326	      0.28247138	     12.37932887	      8.27307549	     -5.49924077	    -16.40518953	      5.68606318	     -6.25302396	      6.45510614	     21.20429640	     -3.91354732	      1.30098102	    -63.63065069	     -1.11717819	      0.72706817	      2.81462465	      2.22300383	     -0.87239550	     -2.92199913
      0.91733333	     -3.96155142	     -2.04231142	      6.88099141	     -0.37461250	      1.03034644	      0.28274856	     11.88971529	      8.27214161	     -5.36540856	    -16.13350381	      5.78893720	     -6.07635342	      6.46336045	     21.66409796	     -3.81614805	      1.19722402	    -63.16156312	     -0.58236473	      0.11222057	      2.69139946	      2.04746896	     -0.87572888	     -2.69716511
      0.92150000	     -3.88670170	     -1.95498765	      6.67076225	     -0.36989069	      1.03093903	      0.28306470	     11.35754999	      8.26398609	     -5.20847042	    -15.84907674	      5.90619760	     -5.88659559	      6.47150930	     22.06287540	     -3.71535411	      1.08553675	    -62.61989731	     -0.13679117	     -0.52139754	      2.55311817	      1.85675711	     -0.92340285	     -2.42416971
      0.92566667	     -3.81754154	     -1.86696769	      6.45057439	     -0.36514006	      1.03149933	      0.28340727	     10.82877237	      8.25300617	     -5.05069958	    -15.56057482	      6.04091161	     -5.67704974	      6.48063259	     22.44548699	     -3.61875237	      0.96365688	    -62.01691506	      0.24002934	     -1.16316440	      2.34854858	      1.71890090	     -0.99615062	     -2.06680068
      0.92983333	     -3.81060121	     -1.81227396	      6.22510397	     -0.36043130	      1.03189522	      0.28376540	     10.38253055	      8.26865140	     -4.89334832	    -15.28679091	      6.10924732	     -5.54564742	      6.48424285	     22.89587327	     -3.55411064	      0.85061157	    -61.39383556	      0.74559622	     -1.66971973	      2.28565701	      1.63199927	     -1.01324367	     -1.95181732
      0.93400000	     -3.73279895	     -1.70871146	      5.97180791	     -0.35576888	      1.03241891	      0.28413167	      9.86055000	      8.23647265	     -4.69973416	    -15.03056180	      6.26160098	     -5.27816839	      6.49240818	     23.22616362	     -3.44223938	      0.72525331	    -60.66900647	      1.05642237	     -2.30333890	      1.79683908	      1.41269370	     -1.09296937	     -1.32493519
      0.93816667	     -3.66405854	     -1.60649087	      5.71069330	     -0.35106553	      1.03290795	      0.28453528	      9.33962435	      8.20880699	     -4.46962025	    -14.75821249	      6.38297385	     -5.15564345	      6.49541075	     23.54054023	     -3.34043650	      0.58837782	    -59.88014910	      1.34457019	     -2.89810144	      1.62806129	      1.24001982	     -1.14219942	     -1.16850584
      0.94233333	     -3.64227906	     -1.51483755	      5.43885910	     -0.34641627	      1.03326507	      0.28494445	      8.88944653	      8.18085177	     -4.24739382	    -14.52035354	      6.49199939	     -4.99342086	      6.49764552	     23.89614795	     -3.24637606	      0.45617791	    -59.05461305	      1.68455894	     -3.43745023	      1.48678790	      1.07341057	     -1.19325921	     -0.91789053
      0.94650000	     -3.57567242	     -1.42118662	      5.17784052	     -0.34170470	      1.03369135	      0.28535129	      8.37188374	      8.15034169	     -4.04665479	    -14.24414839	      6.61959309	     -4.80312303	      6.49779477	     24.17121782	     -3.15393951	      0.33502404	    -58.14937910	      1.93522675	     -3.96646073	      1.29626860	      0.93413863	     -1.26587837	     -0.55549359
      0.95066667	     -3.57364073	     -1.33481763	      4.89427176	     -0.33706623	      1.03395182	      0.28578624	      7.94936065	      8.11981170	     -3.81643556	    -14.01557717	      6.72913675	     -4.64088284	      6.49773501	     24.50580038	     -3.06978273	      0.20541149	    -57.20889309	      2.24742743	     -4.43618248	      1.16006517	      0.79229350	     -1.31818220	     -0.30595944
      0.95483333	     -3.52272688	     -1.25182727	      4.63939619	     -0.33236578	      1.03428482	      0.28618160	      7.45427176	      8.08838400	     -3.63847046	    -13.74260559	      6.83890826	     -4.41632932	      6.49031868	     24.75845305	     -2.98251279	      0.11281558	    -56.19051839	      2.46939165	     -4.91396957	      0.87508526	      0.66571563	     -1.38734803	      0.14992710
      0.95900000	     -3.50396723	     -1.15562949	      4.33714098	     -0.32771433	      1.03452822	      0.28665049	      7.01180564	      8.04454942	     -3.37817331	    -13.51434004	      6.97330231	     -4.27878976	      6.48896679	     25.01769190	     -2.90176150	     -0.03170634	    -55.11313896	      2.71845094	     -5.31433289	      0.75602876	      0.51779833	     -1.44908446	      0.31915029
      0.96316667	     -3.45213441	     -1.07028713	      4.07139196	     -0.32299991	      1.03480515	      0.28705429	      6.51835654	      8.00349216	     -3.18816281	    -13.25036922	      7.11308886	     -4.08996443	      6.48278865	     25.21545917	     -2.81771050	     -0.12851805	    -53.96301842	      2.84931237	     -5.75368793	      0.57154502	      0.39447088	     -1.50535512	      0.68264635
      0.96733333	     -3.45121338	     -0.99757200	      3.79531394	     -0.31830985	      1.03494024	      0.28747743	      6.09218916	      7.96974833	     -2.98343394	    -13.00760055	      7.24684323	     -3.89880386	      6.47403798	     25.45251227	     -2.74853460	     -0.22467542	    -52.76931489	      3.01392738	     -6.13870802	      0.37205939	      0.30326302	     -1.55600050	      1.01078525
      0.97150000	     -3.48795134	     -0.95104319	      3.52591353	     -0.31358001	      1.03496784	      0.28790238	      5.69988999	      7.96088034	     -2.77595186	    -12.74472541	      7.32562444	     -3.74573592	      6.47142185	     25.71552426	     -2.71130287	     -0.32457701	    -51.54011767	      3.25952367	     -6.43373494	      0.29636099	      0.27529936	     -1.59854280	      1.13538919
